<svg id="Layer_1" data-name="Layer 1" xmlns="http://www.w3.org/2000/svg" viewBox="0 0 860.67 280"><defs><style>.cls-1,.cls-10,.cls-2,.cls-5,.cls-7,.cls-9{fill:none;stroke-miterlimit:10;}.cls-1{stroke:#a7a9ac;}.cls-1,.cls-2,.cls-7{stroke-width:6px;}.cls-2{stroke:#a91e22;}.cls-3{fill:#a7a9ac;}.cls-4{fill:#a91e22;}.cls-10,.cls-5,.cls-9{stroke:#231f20;stroke-width:3px;}.cls-6{fill:#231f20;}.cls-7{stroke:#1b75bc;}.cls-8{fill:#1b75bc;}.cls-9{stroke-dasharray:5.94 5.94;}.cls-10{stroke-dasharray:6 6;}</style></defs><title>composition</title><path class="cls-1" d="M304.43,146.61c2.29-9.29,3.51-19.25.38-28.29a51.82,51.82,0,0,0-7.44-13.22,50.78,50.78,0,0,0-9.45-10.45c-12.51-9.81-30.84-8.24-45.29-1.61s-26.48,17.5-39.92,26a137.37,137.37,0,0,1-35.18,15.82c-8,2.32-16.34,3.94-23.68,7.89s-13.76,10.86-14.39,19.18c-.39,5.13,1.45,10.22,4.1,14.64,6.48,10.77,17.47,18,28.64,23.76a195.53,195.53,0,0,0,57.05,19,135.69,135.69,0,0,0,20.08,2,63.25,63.25,0,0,0,20.16-2.48,46.51,46.51,0,0,0,28.57-27C290.79,185.07,302.26,155.42,304.43,146.61Z"/><path class="cls-2" d="M349.14,195.14c1.42,9.46,4.09,19.13,10.42,26.3a51.82,51.82,0,0,0,11.91,9.39,50.78,50.78,0,0,0,12.72,6.06c15.31,4.3,31.66-4.13,42.49-15.77s17.81-26.27,27-39.24a137.37,137.37,0,0,1,26.5-28c6.53-5.2,13.6-9.87,18.89-16.32s8.58-15.29,6-23.22c-1.59-4.9-5.24-8.9-9.37-12-10.09-7.49-23-10-35.53-11.05a195.53,195.53,0,0,0-60,4.18,135.69,135.69,0,0,0-19.33,5.79,63.25,63.25,0,0,0-17.69,10A46.51,46.51,0,0,0,347,147C347.1,154.39,347.79,186.17,349.14,195.14Z"/><rect class="cls-3" x="205.78" y="132.5" width="12.93" height="12.93" rx="6.47" ry="6.47" transform="translate(342.35 -78.82) rotate(87.64)"/><rect class="cls-3" x="182.7" y="183.5" width="12.93" height="12.93" rx="6.47" ry="6.47" transform="translate(371.18 -6.87) rotate(87.64)"/><rect class="cls-3" x="235.74" y="157.84" width="12.93" height="12.93" rx="6.47" ry="6.47" transform="translate(370.54 -98.73) rotate(81.86)"/><rect class="cls-4" x="390.69" y="132.5" width="12.93" height="12.93" rx="6.47" ry="6.47" transform="translate(519.64 -263.58) rotate(87.64)"/><rect class="cls-4" x="406.27" y="171" width="12.93" height="12.93" rx="6.47" ry="6.47" transform="translate(573.04 -242.24) rotate(87.64)"/><path class="cls-5" d="M224.83,137.87c45.9-3.6,83.9-17.76,129.77-13.82,6.15.53,17.59,1.86,25,4.82"/><path class="cls-6" d="M379.05,128.69c-.67-2.11.09-5.21,1-7.15a20.44,20.44,0,0,0,4.26,9.88c-3.62-.35-7.22.8-10.52,2.24C375,131.69,376.81,129.47,379.05,128.69Z"/><path class="cls-5" d="M199.9,190l87.8-5.62c20.84-1.33,41.72-2.67,62.31-6.12,15.51-2.6,31.58-6.36,46.82-3.35"/><path class="cls-6" d="M396.23,174.77c-1.15-1.89-1.15-5.08-.7-7.19a20.44,20.44,0,0,0,6.47,8.59c-3.6.52-6.83,2.48-9.7,4.66C393,178.64,394.24,176.05,396.23,174.77Z"/><path class="cls-7" d="M570.89,80.27c-9,3.37-17.85,8-23.54,15.7a51.82,51.82,0,0,0-6.68,13.61,50.78,50.78,0,0,0-3.27,13.7c-1,15.87,10.67,30.09,24.32,38.25s29.41,11.92,44,18.19a137.37,137.37,0,0,1,33,20c6.45,5.29,12.5,11.24,19.91,15.06s16.74,5.19,24,1c4.45-2.58,7.61-7,9.74-11.67,5.21-11.44,4.95-24.59,3.37-37.06A195.53,195.53,0,0,0,679,109.31a135.69,135.69,0,0,0-9.71-17.69,63.25,63.25,0,0,0-13.46-15.21,46.51,46.51,0,0,0-38.4-8.29C610.32,69.74,579.38,77.07,570.89,80.27Z"/><rect class="cls-8" x="626.87" y="95.72" width="12.93" height="12.93" rx="6.47" ry="6.47" transform="translate(709.34 -534.82) rotate(87.64)"/><rect class="cls-8" x="655.74" y="167.29" width="12.93" height="12.93" rx="6.47" ry="6.47" transform="translate(808.53 -495.05) rotate(87.64)"/><rect class="cls-8" x="565.2" y="124.15" width="12.93" height="12.93" rx="6.47" ry="6.47" transform="translate(678.62 -445.95) rotate(87.64)"/><rect class="cls-8" x="610.55" y="133.53" width="12.93" height="12.93" rx="6.47" ry="6.47" transform="translate(731.47 -482.26) rotate(87.64)"/><path class="cls-5" d="M407.12,130.62C410.37,114.19,573.42,80,616.07,99.95"/><path class="cls-6" d="M615.51,99.71c-.58-2.14.32-5.2,1.33-7.1a20.44,20.44,0,0,0,3.82,10.05c-3.6-.51-7.25.48-10.61,1.77C611.36,102.53,613.24,100.39,615.51,99.71Z"/><path class="cls-5" d="M426.48,186.82c24,13.88,49.47,10.31,77.14,11.74A575.48,575.48,0,0,0,627,191.62c7.58-1.25,15.37-2.76,22.09-6.32"/><path class="cls-6" d="M648.57,185.55c-2.16-.52-4.41-2.77-5.59-4.57a20.44,20.44,0,0,0,10.66,1.46c-2.17,2.92-3.05,6.59-3.53,10.16C649.06,190.55,648.08,187.87,648.57,185.55Z"/><path class="cls-5" d="M218.06,126.67l1.71-2.46"/><path class="cls-9" d="M223.17,119.34c16.38-23.37,66.92-94.56,74.16-94,8.67.67,312-6.67,319.68,0,5.6,4.88,15,35.95,19.05,52.31"/><path class="cls-5" d="M636.77,80.52c.26,1.08.48,2.06.66,2.92"/><path class="cls-6" d="M637.29,83c1.05-1.43,3.41-2.39,5.11-2.7a16.36,16.36,0,0,0-4.4,7.4,17.25,17.25,0,0,0-6.39-5.76C633.45,81.79,635.73,81.9,637.29,83Z"/><path class="cls-10" d="M248.67,147.46S326.67,42.67,334,44s265.33,0,265.33,0l25.25,42"/><path class="cls-6" d="M624.27,85.49c.54-2.15,2.81-4.39,4.62-5.55a20.44,20.44,0,0,0-1.56,10.64c-2.9-2.2-6.56-3.11-10.13-3.62C619.27,85.93,622,85,624.27,85.49Z"/><path class="cls-5" d="M255.28,163c39-6.37,86.4-8.67,126.12-14.69"/><path class="cls-6" d="M380.79,148.32c-1.78-1.32-3-4.28-3.34-6.4a20.44,20.44,0,0,0,9.22,5.53c-3.15,1.83-5.4,4.86-7.24,8C379.27,153.11,379.42,150.26,380.79,148.32Z"/><path class="cls-10" d="M195.33,202.67s114.61,58.67,125.64,60,321-9.33,326.36-11.33c4.38-1.64,11.61-44.26,14-59.39"/><path class="cls-6" d="M661.27,192.54c-1.8,1.3-5,1.55-7.11,1.27a20.44,20.44,0,0,0,8-7.14c.8,3.55,3,6.61,5.42,9.29C665.38,195.41,662.71,194.42,661.27,192.54Z"/></svg>