<svg id="Layer_1" data-name="Layer 1" xmlns="http://www.w3.org/2000/svg" viewBox="0 0 860.67 280"><defs><style>.cls-1{fill:#a7a9ac;}.cls-2{fill:#a91e22;}.cls-3{fill:#231f20;}.cls-4{fill:#1b75bc;}</style></defs><title>composition_outlinestroke</title><path class="cls-1" d="M241,224.35l-1.75,0a138.3,138.3,0,0,1-20.52-2.05A197.82,197.82,0,0,1,160.84,203c-10-5.18-22.51-12.69-29.84-24.88-3.4-5.66-4.92-11.18-4.52-16.41.65-8.5,6.62-16.57,16-21.59,6-3.21,12.47-4.94,18.76-6.62,1.84-.49,3.68-1,5.51-1.51a134.15,134.15,0,0,0,34.41-15.47c4.78-3,9.5-6.44,14.06-9.73,8.22-5.95,16.72-12.09,26.21-16.45,14-6.42,34-9.28,48.4,2a54.17,54.17,0,0,1,10,11.05c2.84,3.92,6,8.66,7.84,14,3.71,10.73,1.6,22.26-.31,30h0c-2.29,9.28-14.23,40-16.49,45.67a49.29,49.29,0,0,1-30.46,28.71A64,64,0,0,1,241,224.35ZM265.63,90.64a52.11,52.11,0,0,0-21.73,5.13c-9,4.11-17.21,10.08-25.19,15.86-4.64,3.35-9.43,6.82-14.37,9.95a140.16,140.16,0,0,1-35.95,16.16c-1.87.54-3.75,1-5.63,1.54-6.23,1.66-12.12,3.23-17.47,6.11-5.82,3.13-12.24,9.18-12.82,16.77-.3,3.91,1,8.36,3.68,12.86,6.55,10.9,18.11,17.82,27.45,22.64a191.89,191.89,0,0,0,56.17,18.7,132.3,132.3,0,0,0,19.63,2A59.61,59.61,0,0,0,258.6,216a43.23,43.23,0,0,0,26.69-25.21c3.48-8.73,14.22-36.72,16.23-44.89,2.74-11.12,2.89-19.57.46-26.59-1.59-4.6-4.45-8.87-7-12.43A48,48,0,0,0,286.08,97C281.45,93.39,274.4,90.64,265.63,90.64Z"/><path class="cls-2" d="M392.64,241a34.08,34.08,0,0,1-9.26-1.27,54.15,54.15,0,0,1-13.48-6.4c-4.13-2.55-8.85-5.72-12.59-10-7.52-8.51-10-20-11.14-27.84h0c-1.42-9.45-2.09-42.41-2.16-48.51a49.29,49.29,0,0,1,17.22-38.15,65.85,65.85,0,0,1,18.52-10.47,138.36,138.36,0,0,1,19.75-5.92,197.89,197.89,0,0,1,60.91-4.24c11.26,1,25.64,3.15,37.07,11.63,5.3,3.93,8.81,8.46,10.43,13.45,2.63,8.1.19,17.84-6.53,26-4.29,5.24-9.64,9.32-14.82,13.27-1.52,1.16-3,2.32-4.53,3.5a134.09,134.09,0,0,0-25.92,27.42c-3.27,4.62-6.33,9.57-9.29,14.36-5.33,8.63-10.85,17.55-18,25.19C420.24,232.44,406.88,241,392.64,241ZM443.53,93.58a191.89,191.89,0,0,0-42.68,4.81,132.37,132.37,0,0,0-18.9,5.66,60,60,0,0,0-16.86,9.49A43.23,43.23,0,0,0,350,147c.11,9.39.84,39.37,2.09,47.69h0c1.7,11.32,4.78,19.19,9.71,24.76,3.22,3.65,7.49,6.5,11.24,8.82A48,48,0,0,0,385,234c9.81,2.75,25.33.28,39.48-14.93,6.71-7.21,12.07-15.88,17.25-24.26,3-4.87,6.12-9.9,9.5-14.67a140.06,140.06,0,0,1,27.07-28.64c1.52-1.21,3.07-2.39,4.62-3.58,5.13-3.91,10-7.61,13.81-12.3,4.19-5.11,7.82-13.15,5.47-20.39-1.21-3.73-4.08-7.36-8.3-10.49-10.21-7.58-23.53-9.58-34-10.47Q451.72,93.58,443.53,93.58Z"/><rect class="cls-1" x="205.78" y="132.5" width="12.93" height="12.93" rx="6.47" ry="6.47" transform="translate(342.35 -78.82) rotate(87.64)"/><rect class="cls-1" x="182.7" y="183.5" width="12.93" height="12.93" rx="6.47" ry="6.47" transform="translate(371.18 -6.87) rotate(87.64)"/><rect class="cls-1" x="235.74" y="157.84" width="12.93" height="12.93" rx="6.47" ry="6.47" transform="translate(370.54 -98.73) rotate(81.86)"/><rect class="cls-2" x="390.69" y="132.5" width="12.93" height="12.93" rx="6.47" ry="6.47" transform="translate(519.64 -263.58) rotate(87.64)"/><rect class="cls-2" x="406.27" y="171" width="12.93" height="12.93" rx="6.47" ry="6.47" transform="translate(573.04 -242.24) rotate(87.64)"/><path class="cls-3" d="M224.95,139.36l-.23-3c17.38-1.36,33.79-4.27,49.66-7.09,26.61-4.72,51.74-9.18,80.36-6.72,6.23.54,17.83,1.89,25.46,4.92l-1.11,2.79c-7.27-2.89-18.54-4.2-24.61-4.72-28.23-2.43-53.17,2-79.58,6.69C259,135.06,242.47,138,224.95,139.36Z"/><path class="cls-3" d="M379.05,128.69c-.67-2.11.09-5.21,1-7.15a20.44,20.44,0,0,0,4.26,9.88c-3.62-.35-7.22.8-10.52,2.24C375,131.69,376.81,129.47,379.05,128.69Z"/><path class="cls-3" d="M200,191.46l-.19-3,87.8-5.62c20.47-1.31,41.63-2.67,62.16-6.1,2.15-.36,4.31-.74,6.47-1.12,13.51-2.39,27.49-4.86,40.88-2.22l-.58,2.94c-12.85-2.53-26.54-.11-39.78,2.23-2.18.38-4.34.77-6.5,1.13-20.68,3.46-41.92,4.82-62.46,6.14Z"/><path class="cls-3" d="M396.23,174.77c-1.15-1.89-1.15-5.08-.7-7.19a20.44,20.44,0,0,0,6.47,8.59c-3.6.52-6.83,2.48-9.7,4.66C393,178.64,394.24,176.05,396.23,174.77Z"/><path class="cls-4" d="M672.4,221.39a33.38,33.38,0,0,1-15.16-3.91c-6-3.1-11.13-7.48-16.07-11.71-1.45-1.24-2.9-2.49-4.37-3.69a134.09,134.09,0,0,0-32.23-19.6c-5.2-2.23-10.68-4.19-16-6.08-9.55-3.41-19.43-6.93-28.4-12.29-13.21-7.9-26.92-22.82-25.77-41a54.18,54.18,0,0,1,3.44-14.52c1.63-4.57,3.74-9.85,7.1-14.39,6.75-9.13,17.44-13.92,24.89-16.72h0c9-3.37,41-10.92,47-12.26a49.29,49.29,0,0,1,40.91,8.85A65.84,65.84,0,0,1,671.84,90,138.2,138.2,0,0,1,681.77,108a198,198,0,0,1,16.89,58.67c1.42,11.21,2.28,25.73-3.62,38.68-2.74,6-6.43,10.39-11,13A23.14,23.14,0,0,1,672.4,221.39ZM571.95,83.07c-10.71,4-17.76,8.7-22.18,14.67-2.89,3.91-4.79,8.68-6.27,12.84a48,48,0,0,0-3.1,12.89c-.64,10.17,5,24.82,22.86,35.48,8.46,5.05,18.05,8.48,27.34,11.79,5.39,1.92,11,3.91,16.33,6.22a140.11,140.11,0,0,1,33.67,20.48c1.5,1.23,3,2.5,4.47,3.77,4.9,4.19,9.52,8.16,14.91,10.93,5.88,3,14.5,4.9,21.08,1.08,3.39-2,6.34-5.53,8.52-10.32,5.28-11.57,4.44-25,3.12-35.44a191.91,191.91,0,0,0-16.38-56.9,132.1,132.1,0,0,0-9.49-17.3A60,60,0,0,0,654,78.78,43.23,43.23,0,0,0,618.14,71c-9.16,2.07-38.31,9.06-46.2,12Z"/><rect class="cls-4" x="626.87" y="95.72" width="12.93" height="12.93" rx="6.47" ry="6.47" transform="translate(709.34 -534.82) rotate(87.64)"/><rect class="cls-4" x="655.74" y="167.29" width="12.93" height="12.93" rx="6.47" ry="6.47" transform="translate(808.53 -495.05) rotate(87.64)"/><rect class="cls-4" x="565.2" y="124.15" width="12.93" height="12.93" rx="6.47" ry="6.47" transform="translate(678.62 -445.95) rotate(87.64)"/><rect class="cls-4" x="610.55" y="133.53" width="12.93" height="12.93" rx="6.47" ry="6.47" transform="translate(731.47 -482.26) rotate(87.64)"/><path class="cls-3" d="M408.6,130.91l-2.94-.58c.5-2.55,3.38-5.08,9.05-8C450,104.53,579.15,81,616.71,98.59l-1.27,2.72c-16.15-7.56-52.85-7.94-100.68-1-41,5.93-81.62,16.12-98.69,24.76C409.74,128.25,408.73,130.21,408.6,130.91Z"/><path class="cls-3" d="M615.51,99.71c-.58-2.14.32-5.2,1.33-7.1a20.44,20.44,0,0,0,3.82,10.05c-3.6-.51-7.25.48-10.61,1.77C611.36,102.53,613.24,100.39,615.51,99.71Z"/><path class="cls-3" d="M533.21,200.81q-14.85,0-29.67-.77c-6.11-.32-12.17-.39-18-.46-21-.25-40.78-.48-59.77-11.48l1.5-2.6c18.32,10.6,37.74,10.83,58.31,11.08,5.9.07,12,.14,18.16.46a574.46,574.46,0,0,0,123.09-6.91c7.35-1.21,15.08-2.69,21.63-6.17l1.41,2.65c-6.95,3.69-14.95,5.22-22.54,6.48A577.5,577.5,0,0,1,533.21,200.81Z"/><path class="cls-3" d="M648.57,185.55c-2.16-.52-4.41-2.77-5.59-4.57a20.44,20.44,0,0,0,10.66,1.46c-2.17,2.92-3.05,6.59-3.53,10.16C649.06,190.55,648.08,187.87,648.57,185.55Z"/><rect class="cls-3" x="217.42" y="123.94" width="3" height="3" transform="translate(-8.88 233.91) rotate(-55.28)"/><path class="cls-3" d="M224.4,120.2l-2.46-1.72,3.43-4.88,2.45,1.73Zm6.86-9.74-2.45-1.73,3.45-4.86,2.45,1.74Zm6.9-9.7L235.72,99l3.47-4.84,2.44,1.75Zm6.94-9.66-2.43-1.76,3.5-4.82,2.43,1.76Zm7-9.62-2.42-1.77,3.52-4.8,2.42,1.78ZM634,75.67c-.46-1.79-1-3.71-1.53-5.73l2.89-.79c.56,2,1.08,4,1.54,5.77ZM259.16,71.9l-2.41-1.79,3.56-4.77,2.4,1.8Zm371.72-7.67c-.54-1.87-1.11-3.77-1.69-5.68l2.87-.87c.59,1.93,1.16,3.84,1.7,5.72ZM266.29,62.39l-2.39-1.81q1.82-2.41,3.62-4.74l2.38,1.83Q268.11,60,266.29,62.39ZM273.53,53l-2.37-1.85q1.88-2.41,3.69-4.69l2.35,1.87Q275.41,50.57,273.53,53Zm353.88-.07c-.61-1.9-1.23-3.78-1.86-5.62l2.84-1c.63,1.85,1.26,3.75,1.88,5.67ZM280.93,43.68l-2.32-1.9c1.32-1.62,2.6-3.16,3.83-4.6l2.29,1.94Q282.9,41.27,280.93,43.68Zm342.64-2c-.74-2-1.46-3.83-2.15-5.48l2.77-1.15c.7,1.69,1.44,3.57,2.19,5.59Zm-335-7.05-2.23-2c1.55-1.72,2.95-3.19,4.17-4.39l2.1,2.14C291.47,31.56,290.11,33,288.61,34.67ZM619,30.93a15.64,15.64,0,0,0-3-4.46l2-2.26a18.59,18.59,0,0,1,3.66,5.35ZM296.86,27l-1.31-2.7a3.88,3.88,0,0,1,1.69-.45h.19c.2,0,.82,0,2.74,0h1.91l0,3c-2.68,0-4.29,0-4.87,0A3.78,3.78,0,0,0,296.86,27Zm11.2-.16,0-3,6-.08,0,3ZM320,26.66l0-3,6-.09,0,3Zm11.9-.19,0-3,5.9-.09.09,3Zm11.9-.19,0-3,5.95-.1.05,3Zm11.9-.2,0-3,5.95-.1.05,3Zm11.89-.2,0-3,5.95-.1,0,3Zm11.89-.19,0-3,5.94-.1,0,3Zm231.63-.07c-1.6-.17-3.57-.32-5.86-.47l.19-3c2.33.14,4.35.3,6,.48Zm-219.74-.11,0-3,5.95-.09,0,3Zm11.89-.18,0-3,5.95-.09,0,3Zm11.89-.18,0-3,5.94-.08,0,3ZM427,25l0-3,5.94-.08,0,3Zm172.3-.13q-2.78-.12-5.92-.22l.1-3q3.16.1,6,.22Zm-160.43,0,0-3,5.93-.08,0,3Zm11.87-.15,0-3,6-.07,0,3Zm11.94-.14-.05-1.5,0-1.5,5.93-.07,0,3Zm124.77-.06-5.93-.13.06-3,6,.13Zm-112.89-.07,0-3,5.95-.06,0,3Zm11.89-.12,0-3,5.95-.05,0,3Zm89.13,0-5.94-.08,0-3,5.95.08Zm-77.24-.05,0-3,5.95,0,0,3Zm11.89-.08,0-3,5.95,0v3Zm53.48,0-5.94,0,0-3,5.95,0ZM522.14,24V21l5.95,0v3Zm29.71,0-5.94,0V21l5.95,0ZM534,24V21H540v3Z"/><path class="cls-3" d="M636,83.76c-.18-.86-.4-1.83-.66-2.9l2.92-.69c.26,1.09.48,2.08.67,3Z"/><path class="cls-3" d="M637.29,83c1.05-1.43,3.41-2.39,5.11-2.7a16.36,16.36,0,0,0-4.4,7.4,17.25,17.25,0,0,0-6.39-5.76C633.45,81.79,635.73,81.9,637.29,83Z"/><path class="cls-3" d="M249.87,148.35l-2.41-1.79,3.64-4.86,2.4,1.8Zm7.25-9.67-2.4-1.8,3.63-4.81,2.39,1.81Zm7.27-9.6L262,127.27l3.65-4.79,2.39,1.82Zm7.29-9.57-2.38-1.82,3.66-4.78,2.38,1.83ZM279,110l-2.37-1.83,3.68-4.76,2.37,1.84Zm7.37-9.5L284,98.63l3.71-4.74,2.36,1.85ZM293.8,91l-2.35-1.86,3.74-4.72,2.35,1.87Zm329.5-4.25-2.15-3.59,2.57-1.54,2.15,3.59Zm-322-5.15-2.34-1.88,3.78-4.69,2.33,1.89ZM618.05,78,615,72.9l2.57-1.54,3.09,5.14ZM308.86,72.29l-2.32-1.9q2-2.39,3.85-4.64l2.3,1.92Q310.82,69.91,308.86,72.29Zm303-4.53-3.09-5.14,2.57-1.54,3.09,5.14ZM316.56,63.08l-2.28-1.95c1.37-1.6,2.69-3.13,4-4.57l2.25,2Q318.6,60.69,316.56,63.08Zm289.13-5.61-3.09-5.14,2.57-1.54,3.09,5.14Zm-281.2-3.39-2.21-2c1.56-1.7,3-3.18,4.22-4.4l2.11,2.13C327.4,51,326,52.43,324.49,54.09Zm275-6.9-1-1.7h-2.33l0-3,4,0,1.9,3.16Zm-194.2-1.1h-1.42v-3h6v3Zm-7.42,0h-6v-3h6Zm18,0v-3h5.91l.1,1.5v1.5Zm-30,0h-6v-3h6Zm42,0v-3h6v3Zm12,0v-3h5.93l.08,1.5V46Zm-66.05,0-6,0V43l6,0ZM452,46l0-3h6v3Zm-119,0-1.68-2.48a4.24,4.24,0,0,1,3-1c.15,0,.82.1,3.62.18l-.09,3c-2.68-.08-3.57-.15-4-.21A4.53,4.53,0,0,0,332.93,46Zm.81-.53h0ZM464,46l0-3,6,0v3ZM361.86,46l-6,0,0-3,6,0ZM476,46l-.06-1.5,0-1.5,6,0v3Zm12,0v-3l6,0v3Zm-138.14,0-6-.07,0-3,6,.07ZM500,45.9v-3l6,0v3Zm12,0v-3l6,0v3Zm12,0v-3l6,0v3Zm12,0v-3l6,0v3Zm12,0v-3l6,0v3Zm12-.05v-3l6,0v3Zm12-.05v-3l6,0v3Zm12-.06v-3l6,0,0,3Z"/><path class="cls-3" d="M624.27,85.49c.54-2.15,2.81-4.39,4.62-5.55a20.44,20.44,0,0,0-1.56,10.64c-2.9-2.2-6.56-3.11-10.13-3.62C619.27,85.93,622,85,624.27,85.49Z"/><path class="cls-3" d="M255.52,164.46l-.48-3c20.42-3.33,43.49-5.59,65.8-7.77,20.36-2,41.4-4.05,60.34-6.92l.45,3c-19,2.88-40.1,4.94-60.49,6.94C298.86,158.89,275.84,161.14,255.52,164.46Z"/><path class="cls-3" d="M380.79,148.32c-1.78-1.32-3-4.28-3.34-6.4a20.44,20.44,0,0,0,9.22,5.53c-3.15,1.83-5.4,4.86-7.24,8C379.27,153.11,379.42,150.26,380.79,148.32Z"/><path class="cls-3" d="M326.12,264.28v-3c1.66,0,3.68,0,6,0l0,3C329.82,264.26,327.78,264.28,326.12,264.28Zm12.1-.14-.05-3,6-.12.06,3ZM319.78,264a49.05,49.05,0,0,1-5.89-2l1.11-2.79a47,47,0,0,0,5.49,1.91Zm30.48-.07-.07-3,6-.14.07,3Zm12-.29-.08-3,6-.16.08,3Zm12-.32-.08-3,6-.17.08,3Zm12-.34-.09-3,6-.17.09,3Zm12-.35-.09-3,6-.18.09,3Zm12-.36-.09-3,6-.18.09,3Zm12-.37-.09-3,6-.19.09,3Zm12-.38-.1-3,6-.19.1,3Zm12-.39-.1-3,6-.2.1,3Zm12-.4-.1-3,6-.2.1,3Zm12-.4-.1-3,6-.2.1,3Zm12-.41-.1-3,6-.21.1,3Zm-174.14-.3c-1.71-.74-3.56-1.56-5.53-2.44l1.23-2.74c2,.88,3.79,1.69,5.49,2.42Zm186.15-.12-.11-3,6-.21.11,3Zm12-.42-.11-3,6-.21.11,3Zm12-.43-.11-3,6-.22.11,3Zm12-.44-.11-3,6-.22.11,3Zm12-.45-.11-3,6-.23.12,3Zm12-.45-.11-3,6-.23.12,3Zm12-.46-.12-3,6-.24.12,3Zm12-.47-.12-3,6-.24.12,3Zm12-.49-.12-3,6-.25.13,3Zm12-.51-.13-3,6-.26.13,3Zm12-.53-.14-3,6-.28.14,3Zm-317.29-.17-5.47-2.54,1.27-2.72,5.45,2.53Zm329.32-.4-.15-3,6-.31.16,3Zm12.06-.65-.18-3c2.56-.16,4.58-.29,6-.42l.25,3C643.26,253.29,641.22,253.43,638.64,253.59Zm-352.29-4.06-5.44-2.59,1.3-2.71,5.43,2.59Zm364.2-.16-2.74-1.23a45.25,45.25,0,0,0,1.91-5.48l2.88.84A48.13,48.13,0,0,1,650.54,249.37Zm-375.06-5-5.42-2.63,1.31-2.7,5.41,2.62Zm-10.82-5.26-5.4-2.65,1.32-2.69,5.4,2.65Zm389.5-1.43-2.91-.72c.43-1.76.89-3.71,1.36-5.82l2.93.65C655.06,233.88,654.6,235.86,654.16,237.64Zm-400.31-3.88-5.38-2.66,1.33-2.69,5.38,2.66Zm-10.77-5.34-5.39-2.68,1.34-2.68,5.38,2.68Zm413.71-2.57-2.94-.6c.4-1.94.79-3.91,1.17-5.88l2.95.57C657.59,221.92,657.19,223.9,656.79,225.85ZM232.31,223l-5.38-2.7,1.35-2.68,5.38,2.7Zm-10.76-5.4-5.38-2.71,1.35-2.68L222.9,215ZM659.09,214l-2.95-.55c.37-2,.73-4,1.07-5.9l3,.52C659.83,210,659.47,212,659.09,214Zm-448.29-1.8-5.38-2.72,1.36-2.68,5.37,2.72Zm-10.75-5.46-5.4-2.76,1.37-2.67,5.4,2.75Zm461.15-4.59-3-.51c.36-2.13.7-4.13,1-5.92l3,.49C661.9,198,661.57,200,661.2,202.16Z"/><path class="cls-3" d="M661.27,192.54c-1.8,1.3-5,1.55-7.11,1.27a20.44,20.44,0,0,0,8-7.14c.8,3.55,3,6.61,5.42,9.29C665.38,195.41,662.71,194.42,661.27,192.54Z"/></svg>