<svg id="Layer_1" data-name="Layer 1" xmlns="http://www.w3.org/2000/svg" viewBox="0 0 588 2164.67"><defs><style>.cls-1,.cls-2,.cls-5{fill:none;stroke-miterlimit:10;}.cls-1{stroke:#a7a9ac;}.cls-1,.cls-2{stroke-width:6px;}.cls-2{stroke:#a91e22;}.cls-3{fill:#a7a9ac;}.cls-4{fill:#a91e22;}.cls-5{stroke:#231f20;stroke-width:3px;}.cls-6{fill:#231f20;}</style></defs><title>functions_sets</title><path class="cls-1" d="M127.63,232.64c2,9.35,5.33,18.83,12.12,25.57a51.82,51.82,0,0,0,12.5,8.59,50.78,50.78,0,0,0,13.08,5.2c15.55,3.3,31.32-6.19,41.37-18.51s16.06-27.37,24.39-40.92A137.37,137.37,0,0,1,255.7,182.9c6.17-5.61,12.93-10.73,17.79-17.52s7.57-15.81,4.47-23.56c-1.91-4.78-5.8-8.54-10.13-11.33-10.56-6.82-23.61-8.46-36.18-8.71a195.53,195.53,0,0,0-59.59,8.07,135.69,135.69,0,0,0-18.91,7,63.25,63.25,0,0,0-17,11.11,46.51,46.51,0,0,0-13.78,36.79C122.94,192.1,125.7,223.77,127.63,232.64Z"/><path class="cls-2" d="M414.9,98.63c-8.37-4.62-17.68-8.38-27.22-7.72A51.82,51.82,0,0,0,373,94.67a50.78,50.78,0,0,0-12.54,6.41c-12.72,9.54-16,27.65-13.31,43.32s10,30.11,14.74,45.3A137.37,137.37,0,0,1,368,227.77c.16,8.34-.44,16.8,1.47,24.92s6.92,16.11,14.78,18.88c4.86,1.71,10.25,1.26,15.2-.16,12.08-3.46,21.92-12.2,30.38-21.49A195.53,195.53,0,0,0,463,199.76a135.69,135.69,0,0,0,7.16-18.87A63.25,63.25,0,0,0,473,160.78a46.51,46.51,0,0,0-18.62-34.59C448.49,121.79,422.84,103,414.9,98.63Z"/><path class="cls-3" d="M209.23,163.79h0a6.47,6.47,0,0,1-6.21,6.72h0a6.47,6.47,0,0,1-6.72-6.21h0a6.47,6.47,0,0,1,6.21-6.72h0A6.47,6.47,0,0,1,209.23,163.79Z"/><path class="cls-3" d="M178.57,244.13h0a6.46,6.46,0,0,1-6.19,6.73h0a6.46,6.46,0,0,1-6.73-6.19h0a6.46,6.46,0,0,1,6.19-6.73h0A6.46,6.46,0,0,1,178.57,244.13Z"/><path class="cls-3" d="M223.81,193.86h0a6.46,6.46,0,0,1-5.5,7.31h0a6.46,6.46,0,0,1-7.31-5.5h0a6.46,6.46,0,0,1,5.5-7.31h0A6.46,6.46,0,0,1,223.81,193.86Z"/><path class="cls-4" d="M393.36,126.26h0a6.46,6.46,0,0,1-6.19,6.73h0a6.46,6.46,0,0,1-6.73-6.19h0a6.46,6.46,0,0,1,6.19-6.73h0A6.46,6.46,0,0,1,393.36,126.26Z"/><path class="cls-4" d="M411.82,185.84h0a6.46,6.46,0,0,1-6.19,6.73h0a6.46,6.46,0,0,1-6.73-6.19h0a6.46,6.46,0,0,1,6.19-6.73h0A6.46,6.46,0,0,1,411.82,185.84Z"/><path class="cls-4" d="M443.6,154.16h0a6.46,6.46,0,0,1-6.19,6.73h0a6.46,6.46,0,0,1-6.73-6.19h0a6.46,6.46,0,0,1,6.19-6.73h0A6.46,6.46,0,0,1,443.6,154.16Z"/><path class="cls-4" d="M408.49,234.64h0a6.46,6.46,0,0,1-6.19,6.73h0a6.46,6.46,0,0,1-6.73-6.19h0a6.46,6.46,0,0,1,6.19-6.73h0A6.46,6.46,0,0,1,408.49,234.64Z"/><path class="cls-5" d="M214.52,158.91c18.38-8.5,39.26-9,59.35-11.58,11.17-1.42,22.23-3.52,33.29-5.62l26.8-5.08c6-1.13,12-2.26,17.81-3.88a148.43,148.43,0,0,1,20.46-3.59"/><path class="cls-6" d="M371.65,129.28c-1.75-1.35-2.89-4.33-3.23-6.46a20.44,20.44,0,0,0,9.12,5.7c-3.18,1.77-5.49,4.76-7.38,7.82C370,134,370.25,131.19,371.65,129.28Z"/><path class="cls-5" d="M229.5,195.07c25.83.74,49.6.88,75.15-3a120.54,120.54,0,0,0,23.81-5.77,151.09,151.09,0,0,0,16.83-7.77c8.58-4.44,17.15-9.09,24.44-15.43,5.93-5.16,11-11.59,13.78-18.89"/><path class="cls-6" d="M383.25,144.75c-2,1-5.15.81-7.22.23a20.44,20.44,0,0,0,9-5.9c.28,3.63,2,7,4,10C386.9,148.19,384.41,146.82,383.25,144.75Z"/><path class="cls-5" d="M169.09,231.43c-1.67-13.23-2.52-22.67-3.72-35.94a96.37,96.37,0,0,1,64.76-99.87c10.7-3.66,22-5.42,33.22-6.53,26.79-2.65,54.52-1.64,79.55,8.25,10.57,4.18,20.47,9.86,30.22,15.73"/><path class="cls-6" d="M372.57,112.83c-.56-2.14.36-5.2,1.4-7.08a20.44,20.44,0,0,0,3.73,10.09c-3.6-.54-7.25.41-10.63,1.67C368.39,115.61,370.29,113.49,372.57,112.83Z"/><path class="cls-1" d="M120.18,464.08c-3.43,8.93-5.87,18.67-3.89,28a51.82,51.82,0,0,0,5.74,14,50.78,50.78,0,0,0,8.08,11.54c11.2,11.29,29.58,12,44.75,7.21S203.3,510.75,217.69,504a137.37,137.37,0,0,1,36.87-11.33c8.24-1.31,16.7-1.89,24.48-4.89s15-9.07,16.66-17.25c1-5-.17-10.32-2.26-15-5.09-11.49-15.1-20-25.47-27.13a195.53,195.53,0,0,0-54.25-25.93A135.69,135.69,0,0,0,194,398a63.25,63.25,0,0,0-20.31,0A46.51,46.51,0,0,0,142,421.17C138.49,427.61,123.43,455.61,120.18,464.08Z"/><path class="cls-2" d="M370.41,367.62c-9.56-.43-19.56.33-27.82,5.16a51.82,51.82,0,0,0-11.5,9.88,50.78,50.78,0,0,0-8.4,11.31c-7.17,14.19-2,31.86,7.29,44.73s22.34,22.54,33.31,34a137.37,137.37,0,0,1,22.4,31.4c3.84,7.4,7.06,15.25,12.38,21.68s13.35,11.36,21.63,10.36c5.11-.62,9.74-3.42,13.55-6.89,9.3-8.46,14.23-20.66,17.69-32.74a195.53,195.53,0,0,0,7.46-59.67,135.69,135.69,0,0,0-2-20.08A63.25,63.25,0,0,0,450,397.53a46.51,46.51,0,0,0-32-22.74C410.8,373.47,379.48,368,370.41,367.62Z"/><path class="cls-3" d="M159.47,443.21h0a6.46,6.46,0,0,1-6.19,6.73h0a6.46,6.46,0,0,1-6.73-6.19h0a6.46,6.46,0,0,1,6.19-6.73h0A6.46,6.46,0,0,1,159.47,443.21Z"/><path class="cls-3" d="M178.58,490.09h0a6.46,6.46,0,0,1-6.19,6.73h0a6.46,6.46,0,0,1-6.73-6.19h0a6.46,6.46,0,0,1,6.19-6.73h0A6.46,6.46,0,0,1,178.58,490.09Z"/><path class="cls-3" d="M230.63,440.47h0a6.46,6.46,0,0,1-5.48,7.32h0a6.46,6.46,0,0,1-7.32-5.48h0a6.46,6.46,0,0,1,5.48-7.32h0A6.46,6.46,0,0,1,230.63,440.47Z"/><path class="cls-4" d="M422.56,403.93h0a6.46,6.46,0,0,1-6.19,6.73h0a6.46,6.46,0,0,1-6.73-6.19h0a6.46,6.46,0,0,1,6.19-6.73h0A6.46,6.46,0,0,1,422.56,403.93Z"/><path class="cls-4" d="M431.09,505.43h0a6.46,6.46,0,0,1-6.19,6.73h0a6.46,6.46,0,0,1-6.73-6.19h0a6.46,6.46,0,0,1,6.19-6.73h0A6.46,6.46,0,0,1,431.09,505.43Z"/><path class="cls-4" d="M384.14,394.72h0a6.46,6.46,0,0,1-6.19,6.73h0a6.46,6.46,0,0,1-6.73-6.19h0a6.46,6.46,0,0,1,6.19-6.73h0A6.46,6.46,0,0,1,384.14,394.72Z"/><path class="cls-4" d="M348.43,420.5h0a6.46,6.46,0,0,1-6.19,6.73h0a6.46,6.46,0,0,1-6.73-6.19h0a6.46,6.46,0,0,1,6.19-6.73h0A6.46,6.46,0,0,1,348.43,420.5Z"/><path class="cls-4" d="M388.47,441.14h0a6.46,6.46,0,0,1-6.19,6.73h0a6.46,6.46,0,0,1-6.73-6.19h0a6.46,6.46,0,0,1,6.19-6.73h0A6.46,6.46,0,0,1,388.47,441.14Z"/><path class="cls-4" d="M405.36,480.74h0a6.46,6.46,0,0,1-6.19,6.73h0a6.46,6.46,0,0,1-6.73-6.19h0a6.46,6.46,0,0,1,6.19-6.73h0A6.46,6.46,0,0,1,405.36,480.74Z"/><path class="cls-4" d="M437.13,444.13h0a6.46,6.46,0,0,1-6.19,6.73h0a6.46,6.46,0,0,1-6.73-6.19h0a6.46,6.46,0,0,1,6.19-6.73h0A6.46,6.46,0,0,1,437.13,444.13Z"/><path class="cls-5" d="M181.47,494.5c55.65,7.14,108.57,27.37,164,18.78,9.85-1.52,19.8-2.93,29.13-6.42,7.65-2.86,15-7.3,20.16-13.51"/><path class="cls-6" d="M394.34,493.78c-2.19.33-5.13-.91-6.89-2.14A20.44,20.44,0,0,0,397.88,489c-.92,3.52-.36,7.25.53,10.74C396.67,498.22,394.76,496.11,394.34,493.78Z"/><path class="cls-5" d="M156,431.5c4.93-14,10.14-27,21.77-36.21,12.63-10,28.62-15,44.59-17.21s32.17-1.93,48.28-2.59c13.74-.56,27.62-1.82,41.16.6,28.27,5,52,26.45,63.73,52.73"/><path class="cls-6" d="M375.27,428.28c.84-2,3.42-3.93,5.38-4.82a20.44,20.44,0,0,0-3.09,10.3c-2.55-2.6-6-4-9.49-5.06C370.26,428,373.06,427.44,375.27,428.28Z"/><path class="cls-5" d="M227.27,429c13.56-38.36,40-70.49,77.32-86.7,16.49-7.16,34.14-11.28,51.81-14.61,16.83-3.18,34.94-5.55,50.5,1.6,12.8,5.88,22.19,17.64,27.74,30.58s7.64,27.08,9,41.09c.93,9.3-7.33,18.31-9.82,27.54"/><path class="cls-6" d="M434,427.88c1.78-1.32,5-1.61,7.09-1.36a20.44,20.44,0,0,0-8,7.24c-.85-3.54-3.1-6.57-5.54-9.22C429.91,425.06,432.59,426,434,427.88Z"/><path class="cls-1" d="M290.6,714.82c2.29-9.29,3.51-19.25.38-28.29a51.82,51.82,0,0,0-7.44-13.22,50.78,50.78,0,0,0-9.45-10.45c-12.51-9.81-30.84-8.24-45.29-1.61s-26.48,17.5-39.92,26a137.37,137.37,0,0,1-35.18,15.82c-8,2.32-16.34,3.94-23.68,7.89s-13.76,10.86-14.39,19.18c-.39,5.13,1.45,10.22,4.1,14.64,6.48,10.77,17.47,18,28.64,23.76a195.53,195.53,0,0,0,57.05,19,135.69,135.69,0,0,0,20.08,2,63.25,63.25,0,0,0,20.16-2.48,46.51,46.51,0,0,0,28.57-27C277,753.27,288.43,723.62,290.6,714.82Z"/><path class="cls-2" d="M335.31,763.35c1.42,9.46,4.09,19.13,10.42,26.3A51.82,51.82,0,0,0,357.64,799a50.78,50.78,0,0,0,12.72,6.06c15.31,4.3,31.66-4.13,42.49-15.77s17.81-26.27,27-39.24a137.37,137.37,0,0,1,26.5-28c6.53-5.2,13.6-9.87,18.89-16.32s8.58-15.29,6-23.22c-1.59-4.9-5.24-8.9-9.37-12-10.09-7.49-23-10-35.53-11a195.53,195.53,0,0,0-60,4.18A135.69,135.69,0,0,0,367,669.46a63.25,63.25,0,0,0-17.69,10,46.51,46.51,0,0,0-16.14,35.81C333.27,722.59,334,754.38,335.31,763.35Z"/><path class="cls-3" d="M204.86,706.89h0a6.47,6.47,0,0,1-6.19,6.73h0a6.47,6.47,0,0,1-6.73-6.19h0a6.47,6.47,0,0,1,6.19-6.73h0A6.47,6.47,0,0,1,204.86,706.89Z"/><path class="cls-3" d="M178.57,754.73h0a6.47,6.47,0,0,1-6.19,6.73h0a6.47,6.47,0,0,1-6.73-6.19h0a6.47,6.47,0,0,1,6.19-6.73h0A6.47,6.47,0,0,1,178.57,754.73Z"/><path class="cls-3" d="M248.38,726.57h0a6.47,6.47,0,0,1-5.48,7.32h0a6.47,6.47,0,0,1-7.32-5.48h0a6.47,6.47,0,0,1,5.48-7.32h0A6.47,6.47,0,0,1,248.38,726.57Z"/><path class="cls-4" d="M388.46,705.8h0a6.47,6.47,0,0,1-6.19,6.73h0a6.47,6.47,0,0,1-6.73-6.19h0a6.47,6.47,0,0,1,6.19-6.73h0A6.47,6.47,0,0,1,388.46,705.8Z"/><path class="cls-4" d="M405.36,745.39h0a6.47,6.47,0,0,1-6.19,6.73h0a6.47,6.47,0,0,1-6.73-6.19h0a6.47,6.47,0,0,1,6.19-6.73h0A6.47,6.47,0,0,1,405.36,745.39Z"/><path class="cls-5" d="M246.85,715.66c3.41-16,6.81-34.21,10.22-50.25,2-9.24,4-18.63,8.56-26.89,8-14.41,13.79-22.74,29.81-26.59s42.25-3.74,58.46-.8c9.11,1.65,19.07,4.5,23.86,12.42,3.2,5.28,3.4,11.79,3.51,18,.22,12.33-1.11,27.18-1.27,40.14"/><path class="cls-6" d="M380.07,681.06c1.59-1.55,4.69-2.26,6.84-2.3A20.44,20.44,0,0,0,380,687c-1.31-3.39-4-6.09-6.72-8.4C375.58,678.81,378.37,679.41,380.07,681.06Z"/><path class="cls-5" d="M211,706.07c45.9-3.6,83.9-17.76,129.77-13.82,6.15.53,17.59,1.86,25,4.82"/><path class="cls-6" d="M365.22,696.9c-.67-2.11.09-5.21,1-7.15a20.44,20.44,0,0,0,4.26,9.88c-3.62-.35-7.22.8-10.52,2.24C361.2,699.9,363,697.68,365.22,696.9Z"/><path class="cls-1" d="M277.57,943.35C275.39,934,272,924.61,265.06,918a51.82,51.82,0,0,0-12.63-8.39,50.78,50.78,0,0,0-13.16-5c-15.6-3-31.22,6.68-41.08,19.15s-15.63,27.62-23.74,41.3a137.37,137.37,0,0,1-24.15,30.08c-6.08,5.71-12.76,10.94-17.51,17.79s-7.32,15.93-4.1,23.63c2,4.75,5.94,8.45,10.31,11.17,10.66,6.65,23.74,8.09,36.31,8.15a195.53,195.53,0,0,0,59.45-9,135.7,135.7,0,0,0,18.8-7.33,63.25,63.25,0,0,0,16.83-11.37,46.51,46.51,0,0,0,13.2-37C282.9,983.81,279.64,952.18,277.57,943.35Z"/><path class="cls-2" d="M352.79,940.17c-9,3.37-17.85,8-23.54,15.7a51.82,51.82,0,0,0-6.68,13.61,50.78,50.78,0,0,0-3.27,13.7c-1,15.87,10.67,30.09,24.32,38.25s29.41,11.92,44,18.19a137.37,137.37,0,0,1,33,20c6.45,5.29,12.5,11.24,19.91,15.06s16.74,5.19,24,1c4.45-2.58,7.61-7,9.74-11.67,5.21-11.44,5-24.59,3.37-37.06A195.53,195.53,0,0,0,461,969.17a135.69,135.69,0,0,0-9.71-17.69,63.25,63.25,0,0,0-13.46-15.21,46.51,46.51,0,0,0-38.4-8.29C392.21,929.65,361.27,937,352.79,940.17Z"/><path class="cls-3" d="M233.73,949.81h0a6.47,6.47,0,0,1-6.19,6.73h0a6.47,6.47,0,0,1-6.73-6.19h0a6.47,6.47,0,0,1,6.19-6.73h0A6.47,6.47,0,0,1,233.73,949.81Z"/><path class="cls-3" d="M204.86,1012.31h0a6.47,6.47,0,0,1-6.19,6.73h0a6.47,6.47,0,0,1-6.73-6.19h0a6.47,6.47,0,0,1,6.19-6.73h0A6.47,6.47,0,0,1,204.86,1012.31Z"/><path class="cls-4" d="M438.51,962.71h0a6.47,6.47,0,0,1-6.19,6.73h0a6.47,6.47,0,0,1-6.73-6.19h0a6.47,6.47,0,0,1,6.19-6.73h0A6.47,6.47,0,0,1,438.51,962.71Z"/><path class="cls-4" d="M405.35,1012.3h0a6.47,6.47,0,0,1-6.19,6.73h0a6.47,6.47,0,0,1-6.73-6.19h0a6.47,6.47,0,0,1,6.19-6.73h0A6.47,6.47,0,0,1,405.35,1012.3Z"/><path class="cls-5" d="M186.07,758.17l87.8-5.62c20.84-1.33,41.72-2.67,62.31-6.12,15.51-2.6,31.58-6.36,46.82-3.35"/><path class="cls-6" d="M382.4,743c-1.15-1.89-1.15-5.08-.7-7.19a20.44,20.44,0,0,0,6.47,8.59c-3.6.52-6.83,2.48-9.7,4.66C379.2,746.84,380.41,744.26,382.4,743Z"/><path class="cls-5" d="M208.3,1020.77c7.24,13.09,18.81,23.1,31.63,29.9s26.88,10.59,41,13.22c11,2,22.24,3.43,33.32,1.93,10.36-1.4,20.26-5.28,30.06-9.13,17.29-6.8,35.43-14.24,47.85-28.37"/><path class="cls-6" d="M391.73,1028.76c-2.21.22-5.08-1.17-6.78-2.48a20.44,20.44,0,0,0,10.55-2.11c-1.1,3.47-.72,7.23,0,10.76C393.83,1033.31,392,1031.11,391.73,1028.76Z"/><path class="cls-5" d="M236,940c14.51-13.69,19.39-28.15,37.11-37.31,11.83-6.11,24.53-11.34,37.84-11.66,15.85-.38,31,6.18,45.45,12.61l43.44,19.28c6.3,2.79,12.68,5.64,18,10a29.52,29.52,0,0,1,9.17,12"/><path class="cls-6" d="M426.79,944.35c1.11-1.92,3.91-3.44,6-4.06a20.44,20.44,0,0,0-4.44,9.8c-2.18-2.91-5.45-4.8-8.73-6.28C421.87,943.4,424.71,943.22,426.79,944.35Z"/><path class="cls-1" d="M290.74,1174.81c-8.08-9.21-17.66-17.79-29.45-21.14-6.25-1.77-12.84-2-19.34-1.87-6,.11-12.13.5-17.91,2.27-19.48,6-31.27,26.38-34.88,46.43s-1,40.65-1.94,61a176,176,0,0,1-9.16,48.56c-3.44,10.12-7.83,20.06-9.06,30.68s1.34,22.42,9.61,29.18c5.11,4.18,11.81,6,18.39,6.42,16.07,1.09,31.72-5.17,46-12.69a250.52,250.52,0,0,0,61.78-46A173.87,173.87,0,0,0,321.56,1298c5.11-7.06,9.56-14.69,12.16-23,5.19-16.58,2.13-35.35-7.39-49.79C321.15,1217.33,298.4,1183.54,290.74,1174.81Z"/><path class="cls-2" d="M284.15,1179.83c-11.47,4.32-22.88,10.26-30.16,20.11-3.86,5.23-6.38,11.32-8.56,17.44-2,5.69-3.8,11.53-4.19,17.56-1.29,20.33,13.67,38.55,31.16,49s37.69,15.27,56.41,23.3A176,176,0,0,1,371,1332.93c8.26,6.78,16,14.4,25.51,19.29s21.45,6.65,30.7,1.29c5.71-3.31,9.75-8.95,12.48-14.95,6.68-14.65,6.34-31.51,4.32-47.48a250.52,250.52,0,0,0-21.32-74,173.86,173.86,0,0,0-12.44-22.66c-4.8-7.27-10.38-14.12-17.24-19.49-13.69-10.7-32.33-14.45-49.2-10.62C334.67,1166.34,295,1175.73,284.15,1179.83Z"/><path class="cls-5" d="M259,1211.62a107.75,107.75,0,0,0,28.52-8.54"/><path class="cls-5" d="M256.4,1225.62a202,202,0,0,1,42.1-6"/><path class="cls-5" d="M257,1241.53a122.46,122.46,0,0,1,33.12-2.46c5.89.37,12.31,1,17.24-2.22"/><path class="cls-5" d="M266,1261.75a256.29,256.29,0,0,1,59-2.57"/><path class="cls-5" d="M290.49,1276.45l18-1.89"/><path class="cls-1" d="M290.74,1465.9c-8.08-9.21-17.66-17.79-29.45-21.14-6.25-1.77-12.84-2-19.34-1.87-6,.11-12.13.5-17.91,2.27-19.48,6-31.27,26.38-34.88,46.43s-1,40.65-1.94,61a176,176,0,0,1-9.16,48.56c-3.44,10.12-7.83,20.06-9.06,30.68s1.34,22.42,9.61,29.18c5.11,4.18,11.81,6,18.39,6.42,16.07,1.09,31.72-5.17,46-12.69a250.52,250.52,0,0,0,61.78-46,173.85,173.85,0,0,0,16.83-19.62c5.11-7.06,9.56-14.69,12.16-23,5.19-16.58,2.13-35.35-7.39-49.79C321.15,1508.42,298.4,1474.64,290.74,1465.9Z"/><path class="cls-2" d="M284.15,1470.92c-11.47,4.32-22.88,10.26-30.16,20.11-3.86,5.23-6.38,11.32-8.56,17.44-2,5.69-3.8,11.53-4.19,17.56-1.29,20.33,13.67,38.55,31.16,49s37.69,15.27,56.41,23.3A176,176,0,0,1,371,1624c8.26,6.78,16,14.4,25.51,19.29s21.45,6.65,30.7,1.29c5.71-3.31,9.75-8.95,12.48-14.95,6.68-14.65,6.34-31.51,4.32-47.48a250.52,250.52,0,0,0-21.32-74,173.86,173.86,0,0,0-12.44-22.66c-4.8-7.27-10.38-14.12-17.24-19.49-13.69-10.7-32.33-14.45-49.2-10.62C334.67,1457.44,295,1466.83,284.15,1470.92Z"/><path class="cls-5" d="M210.53,1469.09c22,3.24,44.28-1.72,66.5-1.79"/><path class="cls-5" d="M215.45,1503.72C250.52,1501,285,1492.88,320,1489.84c20-1.74,40.28-1.81,60-5.73"/><path class="cls-5" d="M210.34,1530.3c53.36-11,107.84-15.35,161.72-23.44,8-1.19,16.33-2.67,22.44-7.88"/><path class="cls-5" d="M213,1559.74q60.35-10.79,121.34-17.46c25.06-2.74,50.48-5,74.2-13.54"/><path class="cls-5" d="M344,1587.83l72-10.13"/><path class="cls-5" d="M387,1613.17c1.78-1.48,4.15-2,6.42-2.45q15-3,30.27-4.92"/><path class="cls-5" d="M195.5,1592.24q52.81-10.52,106-19l19.42-5.68q43.2-8,86.63-14.77"/><path class="cls-5" d="M211,1613.14q37.62-2.88,74.91-8.9"/><path class="cls-5" d="M200.5,1642.54q26.94-2.56,53.56-7.71"/><path class="cls-1" d="M290.74,1782.34c-8.08-9.21-17.66-17.79-29.45-21.14-6.25-1.77-12.84-2-19.34-1.87-6,.11-12.13.5-17.91,2.27-19.48,6-31.27,26.38-34.88,46.43s-1,40.65-1.94,61a176,176,0,0,1-9.16,48.56c-3.44,10.12-7.83,20.06-9.06,30.68s1.34,22.42,9.61,29.18c5.11,4.18,11.81,6,18.39,6.42,16.07,1.09,31.72-5.17,46-12.69a250.52,250.52,0,0,0,61.78-46,173.85,173.85,0,0,0,16.83-19.62c5.11-7.06,9.56-14.69,12.16-23,5.19-16.58,2.13-35.35-7.39-49.79C321.15,1824.86,298.4,1791.07,290.74,1782.34Z"/><path class="cls-2" d="M284.15,1787.36c-11.47,4.32-22.88,10.26-30.16,20.11-3.86,5.23-6.38,11.32-8.56,17.44-2,5.69-3.8,11.53-4.19,17.56-1.29,20.33,13.67,38.55,31.16,49s37.69,15.27,56.41,23.3A176,176,0,0,1,371,1940.46c8.26,6.78,16,14.4,25.51,19.29s21.45,6.65,30.7,1.29c5.71-3.31,9.75-8.95,12.48-14.95,6.68-14.65,6.34-31.51,4.32-47.48a250.52,250.52,0,0,0-21.32-74A173.86,173.86,0,0,0,410.25,1802c-4.8-7.27-10.38-14.12-17.24-19.49-13.69-10.7-32.33-14.45-49.2-10.62C334.67,1773.87,295,1783.26,284.15,1787.36Z"/><path class="cls-5" d="M210.53,1782c22,3.24,44.28-1.72,66.5-1.79"/><path class="cls-5" d="M349.71,1911.72l72-10.13"/><path class="cls-5" d="M387,1929.6c1.78-1.48,4.15-2,6.42-2.45q15-3,30.27-4.92"/><path class="cls-5" d="M186.07,1929.58q50.16-2.88,99.89-8.9"/><path class="cls-5" d="M200.5,1959q26.94-2.56,53.56-7.71"/><path class="cls-5" d="M204.94,1801a140.14,140.14,0,0,1,28-1.76"/><path class="cls-5" d="M198.37,1829.5a82.85,82.85,0,0,1,33.3.53"/><path class="cls-5" d="M207,1906.66a199.2,199.2,0,0,1,36.42-1c5.26.33,10.87.84,15.59-.55"/><path class="cls-5" d="M201.67,1884.67h24"/><path class="cls-5" d="M202.28,1861.56a68,68,0,0,0,18.72,1.73"/><path class="cls-5" d="M328.64,1793.57l51.39-3"/><path class="cls-5" d="M350.32,1836.67q26.26-.65,52.4-3.18"/><path class="cls-5" d="M350.32,1857.8q29-1.83,58-1.07"/><path class="cls-5" d="M358.5,1886.09c17.62-4.86,37,.72,54.41-4.68"/><path class="cls-5" d="M197,1844a124.07,124.07,0,0,1,21.33-.62"/><path class="cls-5" d="M334.38,1813.65l51.32-7.41"/></svg>