<svg xmlns="http://www.w3.org/2000/svg" viewBox="0 0 800 507"><defs><style>.cls-1{fill:none;stroke:#231f20;stroke-miterlimit:10;stroke-width:4px;}.cls-2{fill:#a91e22;}.cls-3{opacity:0.5;}.cls-4{fill:#1b75bc;}.cls-5{fill:#ebebec;}.cls-6{fill:#231f20;}</style></defs><title>introduction-diagram</title><g id="Tape"><line class="cls-1" x1="669.39" y1="39.92" x2="669.39" y2="111.4"/></g><g id="Control_Head" data-name="Control Head"><path class="cls-1" d="M22.57,112.07l702.24-1.72,16-7.45L730.1,89.47s7.67-7.58,12.23-12.9L731,64.65s7-8.24,11.05-13.2L724.3,41.92H22.57Z"/><line class="cls-1" x1="91.95" y1="39.92" x2="91.95" y2="111.4"/><line class="cls-1" x1="165.14" y1="39.92" x2="165.14" y2="111.4"/><line class="cls-1" x1="237.39" y1="39.92" x2="237.39" y2="111.4"/><line class="cls-1" x1="309.39" y1="39.92" x2="309.39" y2="111.4"/><line class="cls-1" x1="382.25" y1="39.92" x2="382.25" y2="111.4"/><line class="cls-1" x1="453.39" y1="39.92" x2="453.39" y2="111.4"/><line class="cls-1" x1="526.84" y1="39.92" x2="526.84" y2="111.4"/><line class="cls-1" x1="598.84" y1="39.92" x2="598.84" y2="111.4"/><path class="cls-2" d="M191.33,66.6V64.35h1A16.07,16.07,0,0,0,202,61.61a1.55,1.55,0,0,1,1-.33q.83,0,1,.3a2.74,2.74,0,0,1,.18,1.22V90.46h7v2.25q-2.14-.14-9.67-.14t-9.67.14V90.46h6.89V65.64a21.45,21.45,0,0,1-6.44,1Z"/><path class="cls-2" d="M263.46,66.6V64.35h1a16.07,16.07,0,0,0,9.74-2.74,1.55,1.55,0,0,1,1-.33q.83,0,1,.3a2.74,2.74,0,0,1,.18,1.22V90.46h7v2.25q-2.14-.14-9.67-.14t-9.67.14V90.46h6.89V65.64a21.45,21.45,0,0,1-6.44,1Z"/><path class="cls-2" d="M408.76,66.6V64.35h1a16.07,16.07,0,0,0,9.74-2.74,1.55,1.55,0,0,1,1-.33q.83,0,1,.3a2.74,2.74,0,0,1,.18,1.22V90.46h7v2.25q-2.14-.14-9.67-.14t-9.67.14V90.46h6.89V65.64a21.45,21.45,0,0,1-6.44,1Z"/><path class="cls-2" d="M480.76,66.6V64.35h1a16.07,16.07,0,0,0,9.74-2.74,1.55,1.55,0,0,1,1-.33q.83,0,1,.3a2.74,2.74,0,0,1,.18,1.22V90.46h7v2.25q-2.14-.14-9.67-.14t-9.67.14V90.46h6.89V65.64a21.45,21.45,0,0,1-6.44,1Z"/><path class="cls-2" d="M552.76,66.6V64.35h1a16.07,16.07,0,0,0,9.74-2.74,1.55,1.55,0,0,1,1-.33q.83,0,1,.3a2.74,2.74,0,0,1,.18,1.22V90.46h7v2.25q-2.14-.14-9.67-.14t-9.67.14V90.46h6.89V65.64a21.45,21.45,0,0,1-6.44,1Z"/><path class="cls-2" d="M625.12,66.6V64.35h1a16.07,16.07,0,0,0,9.74-2.74,1.55,1.55,0,0,1,1-.33q.83,0,1,.3a2.74,2.74,0,0,1,.18,1.22V90.46h7v2.25q-2.14-.14-9.67-.14t-9.67.14V90.46h6.89V65.64a21.45,21.45,0,0,1-6.44,1Z"/><polygon class="cls-2" points="64.99 78.47 45.82 60.33 45.82 96.6 64.99 78.47"/><path class="cls-2" d="M120.76,66.6V64.35h1a16.07,16.07,0,0,0,9.74-2.74,1.55,1.55,0,0,1,1-.33q.83,0,1,.3a2.74,2.74,0,0,1,.18,1.22V90.46h7v2.25q-2.14-.14-9.67-.14t-9.67.14V90.46h6.89V65.64a21.45,21.45,0,0,1-6.44,1Z"/><path class="cls-2" d="M332.22,81q0-1,0-2.4t0-2.4a28.18,28.18,0,0,1,.27-2.81,19,19,0,0,1,.66-3.15,16.81,16.81,0,0,1,1.27-2.89,8.62,8.62,0,0,1,2-2.57,10,10,0,0,1,3.07-1.66,12.79,12.79,0,0,1,4.29-.67,12.5,12.5,0,0,1,4.3.69,10.47,10.47,0,0,1,3.07,1.66,8.47,8.47,0,0,1,2,2.57,17.43,17.43,0,0,1,1.28,2.89,17.69,17.69,0,0,1,.64,3.12q.23,1.84.26,2.81t0,2.4q0,1.44,0,2.43t-.26,2.79a17.33,17.33,0,0,1-.64,3.07,15.55,15.55,0,0,1-1.28,2.8,8.54,8.54,0,0,1-2.06,2.5,10.25,10.25,0,0,1-3.09,1.62,12.93,12.93,0,0,1-4.24.66,12.67,12.67,0,0,1-4.29-.68,10.82,10.82,0,0,1-3.08-1.62,8.09,8.09,0,0,1-2-2.5,17.08,17.08,0,0,1-1.27-2.8,17.33,17.33,0,0,1-.66-3.07A27.72,27.72,0,0,1,332.22,81Zm6.12-3a71.68,71.68,0,0,0,.45,10.13,5.18,5.18,0,0,0,5,4.57,5.69,5.69,0,0,0,1.88-.32,4.83,4.83,0,0,0,1.95-1.54A6.28,6.28,0,0,0,349,87.59a89,89,0,0,0,.33-9.56q0-9-.82-10.8A4.7,4.7,0,0,0,346.54,65a5.2,5.2,0,0,0-2.72-.77,6.58,6.58,0,0,0-1.76.25,4.71,4.71,0,0,0-2,1.42A5.32,5.32,0,0,0,338.73,69,67.78,67.78,0,0,0,338.34,78Z"/><g class="cls-3"><rect class="cls-4" x="143.33" y="18.15" width="117.02" height="117.02" rx="12" ry="12"/><rect class="cls-5" x="160.82" y="35.64" width="82.05" height="82.05" rx="12" ry="12"/></g><path class="cls-6" d="M187.88,152a11.77,11.77,0,0,1,2.63-7.33q2.63-3.41,5.62-3.41a3.19,3.19,0,0,1,3.08,2.3A7.21,7.21,0,0,1,200.4,142q.76-.76,1-.76a.35.35,0,0,1,.4.39c0,.09,0,.25,0,.48l-4.94,19.65,0,.26a1.27,1.27,0,0,0-.08.38.61.61,0,0,0,.07.32c0,.07.21.14.48.18a8.51,8.51,0,0,0,1.28.07q.86,0,.86.43a.61.61,0,0,1-.67.7q-.58,0-1.8-.05c-.81,0-1.43-.05-1.84-.05s-1,0-1.82.05-1.4.05-1.79.05-.47-.14-.47-.43.07-.52.22-.59a1.56,1.56,0,0,1,.66-.11,4.91,4.91,0,0,0,2-.29,2.73,2.73,0,0,0,.68-1.42l1.41-5.64a5.7,5.7,0,0,1-3.82,1.9,3.75,3.75,0,0,1-3.17-1.6A6.5,6.5,0,0,1,187.88,152Zm2.44,1.58a5.42,5.42,0,0,0,.44,2.2,1.56,1.56,0,0,0,1.55,1,4,4,0,0,0,2.78-1.47,6,6,0,0,0,1.69-2.53l1.72-6.91a1.76,1.76,0,0,0,.1-.47,4.36,4.36,0,0,0-.7-2.3,2,2,0,0,0-1.77-1,3.21,3.21,0,0,0-2.21,1.15A8.61,8.61,0,0,0,192.1,146a25.71,25.71,0,0,0-1.16,3.77A17.35,17.35,0,0,0,190.32,153.56Z"/><path class="cls-6" d="M202.91,153.17v-.87A6.88,6.88,0,0,0,208,150.5c.3,0,.47,0,.52.11a1.4,1.4,0,0,1,.08.62v15.7a1.18,1.18,0,0,0,.43,1.09,5.79,5.79,0,0,0,2.29.26h.92v.88q-1-.08-4.54-.08t-4.53.08v-.87h.89a5.51,5.51,0,0,0,2.19-.25q.42-.25.42-1.1V152.43A8.7,8.7,0,0,1,202.91,153.17Z"/><path class="cls-1" d="M22.57,277.19l702.24-1.72,16-7.45L730.1,254.59s7.67-7.58,12.23-12.9L731,229.78s7-8.24,11.05-13.2L724.3,207H22.57Z"/><line class="cls-1" x1="91.95" y1="205.05" x2="91.95" y2="276.53"/><line class="cls-1" x1="165.14" y1="205.05" x2="165.14" y2="276.53"/><line class="cls-1" x1="237.39" y1="205.05" x2="237.39" y2="276.53"/><line class="cls-1" x1="309.39" y1="205.05" x2="309.39" y2="276.53"/><line class="cls-1" x1="382.25" y1="205.05" x2="382.25" y2="276.53"/><line class="cls-1" x1="453.39" y1="205.05" x2="453.39" y2="276.53"/><line class="cls-1" x1="526.84" y1="205.05" x2="526.84" y2="276.53"/><line class="cls-1" x1="598.84" y1="205.05" x2="598.84" y2="276.53"/><line class="cls-1" x1="669.39" y1="205.05" x2="669.39" y2="276.53"/><path class="cls-2" d="M263.46,231.73v-2.25h1a16.07,16.07,0,0,0,9.74-2.74,1.55,1.55,0,0,1,1-.33q.83,0,1,.3a2.74,2.74,0,0,1,.18,1.22v27.66h7v2.25q-2.14-.14-9.67-.14t-9.67.14v-2.25h6.89V230.76a21.45,21.45,0,0,1-6.44,1Z"/><path class="cls-2" d="M408.76,231.73v-2.25h1a16.07,16.07,0,0,0,9.74-2.74,1.55,1.55,0,0,1,1-.33q.83,0,1,.3a2.74,2.74,0,0,1,.18,1.22v27.66h7v2.25q-2.14-.14-9.67-.14t-9.67.14v-2.25h6.89V230.76a21.45,21.45,0,0,1-6.44,1Z"/><path class="cls-2" d="M480.76,231.73v-2.25h1a16.07,16.07,0,0,0,9.74-2.74,1.55,1.55,0,0,1,1-.33q.83,0,1,.3a2.74,2.74,0,0,1,.18,1.22v27.66h7v2.25q-2.14-.14-9.67-.14t-9.67.14v-2.25h6.89V230.76a21.45,21.45,0,0,1-6.44,1Z"/><path class="cls-2" d="M552.76,231.73v-2.25h1a16.07,16.07,0,0,0,9.74-2.74,1.55,1.55,0,0,1,1-.33q.83,0,1,.3a2.74,2.74,0,0,1,.18,1.22v27.66h7v2.25q-2.14-.14-9.67-.14t-9.67.14v-2.25h6.89V230.76a21.45,21.45,0,0,1-6.44,1Z"/><path class="cls-2" d="M625.12,231.73v-2.25h1a16.07,16.07,0,0,0,9.74-2.74,1.55,1.55,0,0,1,1-.33q.83,0,1,.3a2.74,2.74,0,0,1,.18,1.22v27.66h7v2.25q-2.14-.14-9.67-.14t-9.67.14v-2.25h6.89V230.76a21.45,21.45,0,0,1-6.44,1Z"/><polygon class="cls-2" points="64.99 243.59 45.82 225.46 45.82 261.72 64.99 243.59"/><path class="cls-2" d="M120.76,231.73v-2.25h1a16.07,16.07,0,0,0,9.74-2.74,1.55,1.55,0,0,1,1-.33q.83,0,1,.3a2.74,2.74,0,0,1,.18,1.22v27.66h7v2.25q-2.14-.14-9.67-.14t-9.67.14v-2.25h6.89V230.76a21.45,21.45,0,0,1-6.44,1Z"/><path class="cls-2" d="M332.22,246.13q0-1,0-2.4t0-2.4a28.18,28.18,0,0,1,.27-2.81,19,19,0,0,1,.66-3.15,16.81,16.81,0,0,1,1.27-2.89,8.62,8.62,0,0,1,2-2.57,10,10,0,0,1,3.07-1.66,12.79,12.79,0,0,1,4.29-.67,12.5,12.5,0,0,1,4.3.69,10.47,10.47,0,0,1,3.07,1.66,8.47,8.47,0,0,1,2,2.57,17.43,17.43,0,0,1,1.28,2.89,17.69,17.69,0,0,1,.64,3.12q.23,1.84.26,2.81t0,2.4q0,1.44,0,2.43t-.26,2.79a17.33,17.33,0,0,1-.64,3.07,15.55,15.55,0,0,1-1.28,2.8,8.54,8.54,0,0,1-2.06,2.5,10.25,10.25,0,0,1-3.09,1.62,12.93,12.93,0,0,1-4.24.66,12.67,12.67,0,0,1-4.29-.68,10.82,10.82,0,0,1-3.08-1.62,8.09,8.09,0,0,1-2-2.5,17.08,17.08,0,0,1-1.27-2.8,17.33,17.33,0,0,1-.66-3.07A27.72,27.72,0,0,1,332.22,246.13Zm6.12-3a71.68,71.68,0,0,0,.45,10.13,5.18,5.18,0,0,0,5,4.57,5.69,5.69,0,0,0,1.88-.32,4.83,4.83,0,0,0,1.95-1.54,6.28,6.28,0,0,0,1.31-3.28,89,89,0,0,0,.33-9.56q0-9-.82-10.8a4.7,4.7,0,0,0-1.92-2.25,5.2,5.2,0,0,0-2.72-.77,6.58,6.58,0,0,0-1.76.25,4.71,4.71,0,0,0-2,1.42,5.32,5.32,0,0,0-1.34,3.09A67.78,67.78,0,0,0,338.34,243.15Z"/><path class="cls-2" d="M189.68,246.13q0-1,0-2.4t0-2.4a28.18,28.18,0,0,1,.27-2.81,19,19,0,0,1,.66-3.15,16.81,16.81,0,0,1,1.27-2.89,8.62,8.62,0,0,1,2-2.57,10,10,0,0,1,3.07-1.66,12.79,12.79,0,0,1,4.29-.67,12.5,12.5,0,0,1,4.3.69,10.47,10.47,0,0,1,3.07,1.66,8.47,8.47,0,0,1,2,2.57A17.43,17.43,0,0,1,212,235.4a17.69,17.69,0,0,1,.64,3.12q.23,1.84.26,2.81t0,2.4q0,1.44,0,2.43t-.26,2.79A17.33,17.33,0,0,1,212,252a15.55,15.55,0,0,1-1.28,2.8,8.54,8.54,0,0,1-2.06,2.5,10.25,10.25,0,0,1-3.09,1.62,12.93,12.93,0,0,1-4.24.66,12.67,12.67,0,0,1-4.29-.68,10.82,10.82,0,0,1-3.08-1.62,8.09,8.09,0,0,1-2-2.5,17.08,17.08,0,0,1-1.27-2.8,17.33,17.33,0,0,1-.66-3.07A27.72,27.72,0,0,1,189.68,246.13Zm6.12-3a71.68,71.68,0,0,0,.45,10.13,5.18,5.18,0,0,0,5,4.57,5.69,5.69,0,0,0,1.88-.32A4.83,4.83,0,0,0,205.1,256a6.28,6.28,0,0,0,1.31-3.28,89,89,0,0,0,.33-9.56q0-9-.82-10.8A4.7,4.7,0,0,0,204,230.1a5.2,5.2,0,0,0-2.72-.77,6.58,6.58,0,0,0-1.76.25,4.71,4.71,0,0,0-2,1.42,5.32,5.32,0,0,0-1.34,3.09A67.78,67.78,0,0,0,195.8,243.15Z"/><g class="cls-3"><rect class="cls-4" x="143.33" y="183.28" width="117.02" height="117.02" rx="12" ry="12"/><rect class="cls-5" x="160.82" y="200.76" width="82.05" height="82.05" rx="12" ry="12"/></g><path class="cls-6" d="M187.88,317.1a11.77,11.77,0,0,1,2.63-7.33q2.63-3.41,5.62-3.41a3.19,3.19,0,0,1,3.08,2.3,7.19,7.19,0,0,1,1.19-1.51q.76-.76,1-.76a.35.35,0,0,1,.4.39c0,.09,0,.25,0,.48l-4.94,19.65,0,.26a1.27,1.27,0,0,0-.08.38.61.61,0,0,0,.07.32c0,.08.21.14.48.18a8.49,8.49,0,0,0,1.28.07q.86,0,.86.43a.61.61,0,0,1-.67.7q-.58,0-1.8-.05c-.81,0-1.43-.05-1.84-.05s-1,0-1.82.05-1.4.05-1.79.05-.47-.14-.47-.43.07-.52.22-.59a1.56,1.56,0,0,1,.66-.11,4.91,4.91,0,0,0,2-.29,2.73,2.73,0,0,0,.68-1.42l1.41-5.64a5.71,5.71,0,0,1-3.82,1.9,3.75,3.75,0,0,1-3.17-1.61A6.5,6.5,0,0,1,187.88,317.1Zm2.44,1.58a5.42,5.42,0,0,0,.44,2.2,1.56,1.56,0,0,0,1.55,1,4,4,0,0,0,2.78-1.47,6,6,0,0,0,1.69-2.53L198.5,311a1.76,1.76,0,0,0,.1-.47,4.36,4.36,0,0,0-.7-2.3,2,2,0,0,0-1.77-1,3.21,3.21,0,0,0-2.21,1.15,8.61,8.61,0,0,0-1.82,2.84,25.7,25.7,0,0,0-1.16,3.77A17.35,17.35,0,0,0,190.32,318.68Z"/><path class="cls-6" d="M201.95,334.27a2.8,2.8,0,0,1,0-.66,1.15,1.15,0,0,1,.26-.38l5.33-6q2.95-3.31,2.95-6.21a5.27,5.27,0,0,0-1-3.21,3.24,3.24,0,0,0-2.78-1.34,3.77,3.77,0,0,0-2.25.74,4.24,4.24,0,0,0-1.51,2.07,1.43,1.43,0,0,1,.36,0,1.33,1.33,0,0,1,1.07.44,1.53,1.53,0,0,1,.38,1,1.33,1.33,0,0,1-.48,1.12,1.55,1.55,0,0,1-.95.37,2.61,2.61,0,0,1-.44,0,1.38,1.38,0,0,1-.64-.43,1.49,1.49,0,0,1-.39-1.1,5,5,0,0,1,1.47-3.5,4.9,4.9,0,0,1,3.72-1.55,6,6,0,0,1,4.21,1.52,5.32,5.32,0,0,1,1.42,5.49,7.64,7.64,0,0,1-.58,1.35,8.73,8.73,0,0,1-1.23,1.53q-.9.94-1.61,1.62T207,329.23l-2.94,2.89h5a7.19,7.19,0,0,0,2.63-.22,8.72,8.72,0,0,0,.61-2.49h.7l-.78,4.87Z"/><path class="cls-1" d="M22.57,442.32l702.24-1.72,16-7.45L730.1,419.71s7.67-7.58,12.23-12.9L731,394.9s7-8.24,11.05-13.2l-17.73-9.53H22.57Z"/><line class="cls-1" x1="91.95" y1="370.17" x2="91.95" y2="441.65"/><line class="cls-1" x1="165.14" y1="370.17" x2="165.14" y2="441.65"/><line class="cls-1" x1="237.39" y1="370.17" x2="237.39" y2="441.65"/><line class="cls-1" x1="309.39" y1="370.17" x2="309.39" y2="441.65"/><line class="cls-1" x1="382.25" y1="370.17" x2="382.25" y2="441.65"/><line class="cls-1" x1="453.39" y1="370.17" x2="453.39" y2="441.65"/><line class="cls-1" x1="526.84" y1="370.17" x2="526.84" y2="441.65"/><line class="cls-1" x1="598.84" y1="370.17" x2="598.84" y2="441.65"/><line class="cls-1" x1="669.39" y1="370.17" x2="669.39" y2="441.65"/><path class="cls-2" d="M263.46,396.85V394.6h1a16.07,16.07,0,0,0,9.74-2.74,1.55,1.55,0,0,1,1-.33q.83,0,1,.3a2.74,2.74,0,0,1,.18,1.22v27.66h7V423q-2.14-.14-9.67-.14T264,423v-2.25h6.89V395.89a21.45,21.45,0,0,1-6.44,1Z"/><path class="cls-2" d="M408.76,396.85V394.6h1a16.07,16.07,0,0,0,9.74-2.74,1.55,1.55,0,0,1,1-.33q.83,0,1,.3a2.74,2.74,0,0,1,.18,1.22v27.66h7V423q-2.14-.14-9.67-.14t-9.67.14v-2.25h6.89V395.89a21.45,21.45,0,0,1-6.44,1Z"/><path class="cls-2" d="M480.76,396.85V394.6h1a16.07,16.07,0,0,0,9.74-2.74,1.55,1.55,0,0,1,1-.33q.83,0,1,.3a2.74,2.74,0,0,1,.18,1.22v27.66h7V423q-2.14-.14-9.67-.14t-9.67.14v-2.25h6.89V395.89a21.45,21.45,0,0,1-6.44,1Z"/><path class="cls-2" d="M552.76,396.85V394.6h1a16.07,16.07,0,0,0,9.74-2.74,1.55,1.55,0,0,1,1-.33q.83,0,1,.3a2.74,2.74,0,0,1,.18,1.22v27.66h7V423q-2.14-.14-9.67-.14t-9.67.14v-2.25h6.89V395.89a21.45,21.45,0,0,1-6.44,1Z"/><path class="cls-2" d="M625.12,396.85V394.6h1a16.07,16.07,0,0,0,9.74-2.74,1.55,1.55,0,0,1,1-.33q.83,0,1,.3a2.74,2.74,0,0,1,.18,1.22v27.66h7V423q-2.14-.14-9.67-.14t-9.67.14v-2.25h6.89V395.89a21.45,21.45,0,0,1-6.44,1Z"/><polygon class="cls-2" points="64.99 408.71 45.82 390.58 45.82 426.84 64.99 408.71"/><path class="cls-2" d="M120.76,396.85V394.6h1a16.07,16.07,0,0,0,9.74-2.74,1.55,1.55,0,0,1,1-.33q.83,0,1,.3a2.74,2.74,0,0,1,.18,1.22v27.66h7V423q-2.14-.14-9.67-.14t-9.67.14v-2.25h6.89V395.89a21.45,21.45,0,0,1-6.44,1Z"/><path class="cls-2" d="M332.22,411.25q0-1,0-2.4t0-2.4a28.18,28.18,0,0,1,.27-2.81,19,19,0,0,1,.66-3.15,16.81,16.81,0,0,1,1.27-2.89,8.62,8.62,0,0,1,2-2.57,10,10,0,0,1,3.07-1.66,12.79,12.79,0,0,1,4.29-.67,12.5,12.5,0,0,1,4.3.69,10.47,10.47,0,0,1,3.07,1.66,8.47,8.47,0,0,1,2,2.57,17.43,17.43,0,0,1,1.28,2.89,17.69,17.69,0,0,1,.64,3.12q.23,1.84.26,2.81t0,2.4q0,1.44,0,2.43t-.26,2.79a17.33,17.33,0,0,1-.64,3.07,15.55,15.55,0,0,1-1.28,2.8,8.54,8.54,0,0,1-2.06,2.5,10.25,10.25,0,0,1-3.09,1.62,12.93,12.93,0,0,1-4.24.66,12.67,12.67,0,0,1-4.29-.68,10.82,10.82,0,0,1-3.08-1.62,8.09,8.09,0,0,1-2-2.5,17.08,17.08,0,0,1-1.27-2.8,17.33,17.33,0,0,1-.66-3.07A27.72,27.72,0,0,1,332.22,411.25Zm6.12-3a71.68,71.68,0,0,0,.45,10.13,5.18,5.18,0,0,0,5,4.57,5.69,5.69,0,0,0,1.88-.32,4.83,4.83,0,0,0,1.95-1.54,6.28,6.28,0,0,0,1.31-3.28,89,89,0,0,0,.33-9.56q0-9-.82-10.8a4.7,4.7,0,0,0-1.92-2.25,5.2,5.2,0,0,0-2.72-.77,6.58,6.58,0,0,0-1.76.25,4.71,4.71,0,0,0-2,1.42,5.32,5.32,0,0,0-1.34,3.09A67.78,67.78,0,0,0,338.34,408.28Z"/><path class="cls-2" d="M188.22,411.25q0-1,0-2.4t0-2.4a28.18,28.18,0,0,1,.27-2.81,19,19,0,0,1,.66-3.15,16.81,16.81,0,0,1,1.27-2.89,8.62,8.62,0,0,1,2-2.57,10,10,0,0,1,3.07-1.66,12.79,12.79,0,0,1,4.29-.67,12.5,12.5,0,0,1,4.3.69,10.47,10.47,0,0,1,3.07,1.66,8.47,8.47,0,0,1,2,2.57,17.43,17.43,0,0,1,1.28,2.89,17.69,17.69,0,0,1,.64,3.12q.23,1.84.26,2.81t0,2.4q0,1.44,0,2.43t-.26,2.79a17.33,17.33,0,0,1-.64,3.07,15.55,15.55,0,0,1-1.28,2.8,8.54,8.54,0,0,1-2.06,2.5,10.25,10.25,0,0,1-3.09,1.62,12.93,12.93,0,0,1-4.24.66,12.67,12.67,0,0,1-4.29-.68,10.82,10.82,0,0,1-3.08-1.62,8.09,8.09,0,0,1-2-2.5,17.08,17.08,0,0,1-1.27-2.8,17.33,17.33,0,0,1-.66-3.07A27.72,27.72,0,0,1,188.22,411.25Zm6.12-3a71.68,71.68,0,0,0,.45,10.13,5.18,5.18,0,0,0,5,4.57,5.69,5.69,0,0,0,1.88-.32,4.83,4.83,0,0,0,1.95-1.54,6.28,6.28,0,0,0,1.31-3.28,89,89,0,0,0,.33-9.56q0-9-.82-10.8a4.7,4.7,0,0,0-1.92-2.25,5.2,5.2,0,0,0-2.72-.77,6.58,6.58,0,0,0-1.76.25,4.71,4.71,0,0,0-2,1.42,5.32,5.32,0,0,0-1.34,3.09A67.78,67.78,0,0,0,194.34,408.28Z"/><g class="cls-3"><rect class="cls-4" x="214.74" y="348.4" width="117.02" height="117.02" rx="12" ry="12"/><rect class="cls-5" x="232.22" y="365.89" width="82.05" height="82.05" rx="12" ry="12"/></g><path class="cls-6" d="M259.29,482.22a11.77,11.77,0,0,1,2.63-7.33q2.63-3.41,5.62-3.41a3.19,3.19,0,0,1,3.08,2.3,7.19,7.19,0,0,1,1.19-1.51q.76-.76,1-.76a.35.35,0,0,1,.4.39c0,.09,0,.25,0,.48L268.27,492l0,.26a1.27,1.27,0,0,0-.08.38.61.61,0,0,0,.07.32c0,.08.21.14.48.18a8.49,8.49,0,0,0,1.28.07q.86,0,.86.43a.61.61,0,0,1-.67.7q-.58,0-1.8-.05c-.81,0-1.43-.05-1.84-.05s-1,0-1.82.05-1.4.05-1.79.05-.47-.14-.47-.43.07-.52.22-.59a1.56,1.56,0,0,1,.66-.11,4.91,4.91,0,0,0,2-.29,2.73,2.73,0,0,0,.68-1.42l1.41-5.64a5.71,5.71,0,0,1-3.82,1.9,3.75,3.75,0,0,1-3.17-1.61A6.5,6.5,0,0,1,259.29,482.22Zm2.44,1.58a5.42,5.42,0,0,0,.44,2.2,1.56,1.56,0,0,0,1.55,1,4,4,0,0,0,2.78-1.47,6,6,0,0,0,1.69-2.53l1.72-6.91a1.76,1.76,0,0,0,.1-.47,4.36,4.36,0,0,0-.7-2.3,2,2,0,0,0-1.77-1,3.21,3.21,0,0,0-2.21,1.15,8.61,8.61,0,0,0-1.82,2.84,25.7,25.7,0,0,0-1.16,3.77A17.35,17.35,0,0,0,261.73,483.81Z"/><path class="cls-6" d="M273.13,495.61a1.7,1.7,0,0,1,.4-1.24,1.25,1.25,0,0,1,.91-.4,1.6,1.6,0,0,1,1.11.42,1.66,1.66,0,0,1-.08,2.38,1.65,1.65,0,0,1-1.32.33,3.88,3.88,0,0,0,1.92,1.62,6.41,6.41,0,0,0,2.4.5,3,3,0,0,0,2.19-1,5.2,5.2,0,0,0,1-3.59,6,6,0,0,0-.84-3.39,2.83,2.83,0,0,0-2.5-1.24h-1.23a2.87,2.87,0,0,1-.62,0c-.09,0-.14-.11-.14-.26s.17-.28.51-.32a9.77,9.77,0,0,0,1.1-.08,2.88,2.88,0,0,0,2.5-1.48,6.25,6.25,0,0,0,.78-3.22,3.06,3.06,0,0,0-.82-2.41,2.77,2.77,0,0,0-1.87-.71,6,6,0,0,0-2.08.4,3.32,3.32,0,0,0-1.68,1.28q1.75,0,1.75,1.44a1.44,1.44,0,0,1-.39,1,1.37,1.37,0,0,1-1,.41,1.39,1.39,0,0,1-1.45-1.48,3.28,3.28,0,0,1,1.44-2.69,5.69,5.69,0,0,1,3.56-1.1,5.93,5.93,0,0,1,3.55,1.09,3.27,3.27,0,0,1,1.51,2.76,4.81,4.81,0,0,1-1.07,3,5.72,5.72,0,0,1-2.76,1.93,5.94,5.94,0,0,1,3.41,1.85,4.67,4.67,0,0,1,1.27,3.18,5.05,5.05,0,0,1-1.72,3.81,6.4,6.4,0,0,1-8.07.35A3.85,3.85,0,0,1,273.13,495.61Z"/></g></svg>