<svg xmlns="http://www.w3.org/2000/svg" viewBox="0 0 800 362"><defs><style>.cls-1{fill:#a7a9ac;}.cls-2,.cls-5,.cls-6,.cls-7{fill:none;stroke-miterlimit:10;stroke-width:6px;}.cls-2{stroke:#a7a9ac;}.cls-3{fill:#1b75bc;}.cls-4{fill:#ebebec;}.cls-5,.cls-6,.cls-7{stroke:#231f20;}.cls-6{stroke-dasharray:5.69 5.69;}.cls-7{stroke-dasharray:5.57 5.57;}</style></defs><title>introduction-diagram</title><g id="Tape"><rect class="cls-1" x="22.42" y="219.67" width="18.27" height="70.17"/><path class="cls-2" d="M22.42,220.35H724.15l17.73,9.53c-4.08,5-11.05,13.2-11.05,13.2L742.19,255c-4.56,5.31-12.23,12.9-12.23,12.9l10.71,13.44-16,7.45L22.42,290.5"/><line class="cls-2" x1="91.81" y1="218.35" x2="91.81" y2="289.83"/><line class="cls-2" x1="165" y1="218.35" x2="165" y2="289.83"/><line class="cls-2" x1="237.25" y1="218.35" x2="237.25" y2="289.83"/><line class="cls-2" x1="309.25" y1="218.35" x2="309.25" y2="289.83"/><line class="cls-2" x1="382.1" y1="218.35" x2="382.1" y2="289.83"/><line class="cls-2" x1="453.25" y1="218.35" x2="453.25" y2="289.83"/><line class="cls-2" x1="526.69" y1="218.35" x2="526.69" y2="289.83"/><line class="cls-2" x1="598.69" y1="218.35" x2="598.69" y2="289.83"/><line class="cls-2" x1="669.25" y1="218.35" x2="669.25" y2="289.83"/></g><g id="Control_Head" data-name="Control Head"><polygon class="cls-3" points="266.31 174 294.07 174 280.19 214 266.31 174"/><rect class="cls-3" x="209.29" y="37.83" width="144" height="144" rx="12" ry="12"/><rect class="cls-4" x="230.81" y="59.35" width="100.97" height="100.97" rx="12" ry="12"/><polyline class="cls-5" points="374.56 67.51 372.15 65.73 372.15 68.73"/><line class="cls-6" x1="372.15" y1="74.42" x2="372.15" y2="139.84"/><polyline class="cls-5" points="372.15 142.68 372.15 145.68 374.56 143.9"/><line class="cls-7" x1="379.04" y1="140.59" x2="421.58" y2="109.14"/><polyline class="cls-5" points="423.82 107.49 426.23 105.7 423.82 103.92"/><line class="cls-7" x1="419.34" y1="100.61" x2="376.8" y2="69.17"/><polyline class="cls-5" points="189.24 67.51 191.66 65.73 191.66 68.73"/><line class="cls-6" x1="191.66" y1="74.42" x2="191.66" y2="139.84"/><polyline class="cls-5" points="191.66 142.68 191.66 145.68 189.24 143.9"/><line class="cls-7" x1="184.77" y1="140.59" x2="142.23" y2="109.14"/><polyline class="cls-5" points="139.99 107.49 137.58 105.7 139.99 103.92"/><line class="cls-7" x1="144.47" y1="100.61" x2="187" y2="69.17"/></g></svg>